<?xml version="1.0" encoding="utf-8"?>
<!-- Generator: Adobe Illustrator 16.0.0, SVG Export Plug-In . SVG Version: 6.00 Build 0)  -->
<!DOCTYPE svg PUBLIC "-//W3C//DTD SVG 1.1//EN" "http://www.w3.org/Graphics/SVG/1.1/DTD/svg11.dtd">
<svg version="1.1" id="Layer_1" xmlns="http://www.w3.org/2000/svg" xmlns:xlink="http://www.w3.org/1999/xlink" x="0px" y="0px"
	 width="319.257px" height="368px" viewBox="0 0 319.257 368" enable-background="new 0 0 319.257 368" xml:space="preserve">
<polygon fill="#005685" points="1,92 160,0 319,92 319,276 160,368 1,276 "/>
<polygon fill="#1079BF" points="319.257,92 159.949,184.199 0.642,92 159.949,0 "/>
<text transform="matrix(1 0 0 1 206.7578 136.4414)" fill="#FFFFFF" font-family="'Roboto-Medium'" font-size="55.8636">3</text>
<text transform="matrix(1 0 0 1 240.3994 111.7627)" fill="#FFFFFF" font-family="'Roboto-Medium'" font-size="10.355">BETA</text>
<polygon fill="#EF3F6B" points="159,184.199 0,92 0,276.398 159,368 "/>
<path fill="#FFFFFF" d="M187.322,125.658c-19.832-17.539-28.3-41.206-28.3-41.206s-8.473,24.966-29.077,42.779
	c-32.261,27.891-41.243,50.977-41.243,71.055c0,38.632,31.142,69.331,70.319,69.331s72.173-30.08,72.173-68.713
	C231.195,178.434,229.96,163.364,187.322,125.658z M159.022,264.526c-37.411,0-67.229-29.374-67.229-66.24
	c0-22.509,12.726-44.987,40.174-68.717c10.987-9.499,18.542-20.963,22.946-28.909c1.743-3.144,3.133-5.984,4.169-8.249
	c4.073,8.552,12.48,23.435,26.193,35.562c41.594,36.783,42.83,50.741,42.83,70.931C228.105,235.771,196.433,264.526,159.022,264.526
	z"/>
<g>
	<rect x="175" y="156" fill="#FFFFFF" width="19" height="13"/>
	<path fill="#FFFFFF" d="M175,168v36.891c0,2.195-0.229,4.26-0.756,6.22c-0.527,1.95-1.379,3.702-2.583,5.243
		c-1.196,1.553-2.756,2.776-4.68,3.682c-1.923,0.904-4.232,1.354-6.939,1.354c-2.714,0-5.031-0.449-6.955-1.354
		c-1.915-0.905-3.46-2.129-4.628-3.682c-1.172-1.541-2.04-3.293-2.606-5.243c-0.566-1.96-0.853-4.024-0.853-6.22V156h-19v50.465
		c0,4.83,0.693,9.211,2.274,13.179c1.584,3.945,3.791,7.337,6.729,10.165c2.942,2.826,6.494,5.021,10.713,6.61
		c4.218,1.581,8.95,2.371,14.227,2.371c5.193,0,9.918-0.79,14.178-2.371c4.245-1.589,7.882-3.784,10.895-6.61
		c3.007-2.828,5.133-6.22,6.758-10.165c1.617-3.968,2.227-8.349,2.227-13.179V168H175z"/>
</g>
</svg>
