<?xml version="1.0" encoding="utf-8"?>
<!-- Generator: Adobe Illustrator 16.0.0, SVG Export Plug-In . SVG Version: 6.00 Build 0)  -->
<!DOCTYPE svg PUBLIC "-//W3C//DTD SVG 1.1//EN" "http://www.w3.org/Graphics/SVG/1.1/DTD/svg11.dtd">
<svg version="1.1" id="Layer_1" xmlns="http://www.w3.org/2000/svg" xmlns:xlink="http://www.w3.org/1999/xlink" x="0px" y="0px"
	 width="25px" height="36px" viewBox="0 0 25 36" enable-background="new 0 0 25 36" xml:space="preserve">
<path fill="#FFFFFF" d="M24.978,20.158c-0.328-2.242-1.169-4.24-2.637-6.017c-1.002-1.212-2.06-2.347-3.171-3.461
	c-2.509-2.512-4.949-5.053-6.323-8.354c-0.05-0.127-0.068-0.285-0.254-0.272c-0.22,0.014-0.215,0.222-0.273,0.356
	c-0.873,2.023-2.114,3.818-3.607,5.467c-1.965,2.169-4.155,4.141-6.015,6.406c-5.836,7.11-1.694,17.762,7.575,19.437
	c0.331,0.059,0.72,0.28,0.997,0.28c0.857,0,1.713,0,2.571,0c0.456,0,0.996-0.235,1.489-0.355c5.281-1.339,8.39-4.561,9.558-9.693
	C24.949,23.678,25,23.335,25,23.115c0-0.868,0-1.736,0-2.604C25,20.442,24.997,20.292,24.978,20.158z M15.608,31.737
	C11.934,33,5.934,31,3.654,27.545c-2.496-3.784-2.411-8.625,0.512-12.213c1.012-1.242,2.13-2.396,3.253-3.544
	c1.8-1.841,3.667-3.629,5.045-5.808c0.033-0.052,0.104-0.083,0.202-0.16c2.22,3.557,5.661,6.096,8.259,9.333
	C24.944,20.158,23.004,29.196,15.608,31.737z"/>
<g>
	<path fill="#FFFFFF" d="M16.802,24.638c-0.222,0.541-0.54,1.006-0.952,1.394c-0.414,0.388-0.912,0.688-1.495,0.906
		c-0.584,0.217-1.231,0.325-1.944,0.325c-0.724,0-1.374-0.108-1.952-0.325C9.88,26.72,9.39,26.419,8.987,26.031
		c-0.403-0.388-0.712-0.853-0.929-1.394c-0.217-0.544-0.325-1.145-0.325-1.807V16h2.633v6.615c0,0.301,0.039,0.584,0.116,0.853
		c0.078,0.268,0.196,0.508,0.356,0.719c0.16,0.213,0.372,0.381,0.635,0.505c0.264,0.124,0.582,0.186,0.954,0.186
		c0.371,0,0.688-0.062,0.952-0.186c0.263-0.124,0.478-0.292,0.643-0.505c0.165-0.211,0.284-0.451,0.356-0.719
		c0.072-0.269,0.108-0.552,0.108-0.853V16h2.649v6.831C17.135,23.493,17.024,24.094,16.802,24.638z"/>
</g>
</svg>
