<?xml version="1.0" encoding="utf-8"?>
<!-- Generator: Adobe Illustrator 16.0.0, SVG Export Plug-In . SVG Version: 6.00 Build 0)  -->
<!DOCTYPE svg PUBLIC "-//W3C//DTD SVG 1.1//EN" "http://www.w3.org/Graphics/SVG/1.1/DTD/svg11.dtd">
<svg version="1.1" id="Layer_1" xmlns="http://www.w3.org/2000/svg" xmlns:xlink="http://www.w3.org/1999/xlink" x="0px" y="0px"
	 width="43px" height="51px" viewBox="0 0 43 51" enable-background="new 0 0 43 51" xml:space="preserve">
<polygon opacity="0.3" points="21,25.412 0,13.118 0,37.705 21,49.919 "/>
<polygon opacity="0.6" points="43.225,13.118 21.982,25.412 0.741,13.118 21.982,0.851 "/>
<g>
	<path fill="#FFFFFF" d="M32.75,12.027h1.012c0.471,0,0.81-0.117,1.018-0.35s0.312-0.564,0.312-0.991
		c0-0.419-0.112-0.744-0.335-0.973s-0.553-0.344-0.988-0.344c-0.395,0-0.717,0.113-0.967,0.338s-0.374,0.522-0.374,0.889h-1.401
		l-0.012-0.036c-0.024-0.667,0.225-1.226,0.746-1.679c0.521-0.453,1.184-0.68,1.99-0.68c0.851,0,1.529,0.216,2.036,0.646
		c0.507,0.431,0.76,1.044,0.76,1.838c0,0.371-0.114,0.73-0.341,1.078c-0.228,0.347-0.551,0.617-0.97,0.808
		c0.495,0.176,0.859,0.443,1.093,0.802s0.35,0.769,0.35,1.227c0,0.798-0.274,1.426-0.823,1.883s-1.25,0.685-2.104,0.685
		c-0.806,0-1.483-0.214-2.032-0.644c-0.549-0.429-0.812-1.022-0.788-1.781l0.012-0.036h1.401c0,0.385,0.13,0.697,0.389,0.936
		s0.604,0.358,1.036,0.358c0.451,0,0.806-0.122,1.066-0.365c0.259-0.243,0.389-0.587,0.389-1.033c0-0.49-0.119-0.852-0.356-1.084
		s-0.605-0.35-1.104-0.35H32.75V12.027z"/>
</g>
<g>
	<rect x="25" y="17" fill="#FFFFFF" width="4" height="4"/>
	<path fill="#FFFFFF" d="M25,21v6.869c0,0.494-0.043,0.958-0.162,1.398c-0.118,0.439-0.306,0.834-0.576,1.18
		c-0.27,0.35-0.617,0.625-1.051,0.828c-0.432,0.203-0.951,0.305-1.561,0.305s-1.131-0.102-1.562-0.305
		c-0.431-0.203-0.778-0.479-1.041-0.828c-0.264-0.346-0.594-0.74-0.721-1.18C18.199,28.827,18,28.363,18,27.869V17h-4v11.223
		c0,1.087,0.153,2.072,0.51,2.965c0.356,0.887,0.852,1.65,1.512,2.286c0.662,0.636,1.461,1.13,2.409,1.486s2.013,0.534,3.2,0.534
		c1.168,0,2.23-0.178,3.188-0.534c0.955-0.356,1.773-0.851,2.451-1.486c0.676-0.636,1.009-1.399,1.374-2.286
		C29.008,30.295,29,29.31,29,28.223V21H25z"/>
</g>
</svg>
