<?xml version="1.0" encoding="utf-8"?>
<!-- Generator: Adobe Illustrator 16.0.0, SVG Export Plug-In . SVG Version: 6.00 Build 0)  -->
<!DOCTYPE svg PUBLIC "-//W3C//DTD SVG 1.1//EN" "http://www.w3.org/Graphics/SVG/1.1/DTD/svg11.dtd">
<svg version="1.1" id="Layer_1" xmlns="http://www.w3.org/2000/svg" xmlns:xlink="http://www.w3.org/1999/xlink" x="0px" y="0px"
	 width="319.257px" height="368px" viewBox="0 0 319.257 368" enable-background="new 0 0 319.257 368" xml:space="preserve">
<polygon fill="#005685" points="1,92 160,0 319,92 319,276 160,368 1,276 "/>
<polygon fill="#1079BF" points="319.257,92 159.949,184.199 0.642,92 159.949,0 "/>
<g>
	<path fill="#FFFFFF" d="M217.396,113.583h4.61c2.146,0,3.691-0.532,4.637-1.596c0.945-1.063,1.419-2.568,1.419-4.514
		c0-1.91-0.51-3.387-1.527-4.433c-1.02-1.045-2.52-1.568-4.501-1.568c-1.801,0-3.27,0.514-4.405,1.541
		c-1.137,1.028-1.705,2.378-1.705,4.051h-6.383l-0.055-0.164c-0.109-3.037,1.023-5.587,3.396-7.651
		c2.373-2.063,5.396-3.096,9.069-3.096c3.873,0,6.965,0.982,9.274,2.946c2.309,1.964,3.464,4.755,3.464,8.374
		c0,1.691-0.519,3.328-1.555,4.91s-2.51,2.81-4.419,3.683c2.255,0.8,3.914,2.019,4.979,3.655c1.063,1.636,1.596,3.5,1.596,5.592
		c0,3.637-1.251,6.497-3.751,8.579c-2.501,2.083-5.696,3.123-9.588,3.123c-3.674,0-6.761-0.977-9.261-2.932
		c-2.5-1.955-3.696-4.66-3.587-8.115l0.055-0.164h6.383c0,1.756,0.591,3.177,1.773,4.263c1.182,1.086,2.755,1.629,4.719,1.629
		c2.055,0,3.673-0.553,4.855-1.661c1.182-1.107,1.772-2.677,1.772-4.708c0-2.232-0.541-3.879-1.623-4.941
		c-1.082-1.061-2.76-1.592-5.032-1.592h-4.61V113.583z"/>
</g>
<g>
	<path fill="#FFFFFF" d="M241.203,111.763v-7.362h2.447c0.815,0,1.453,0.168,1.911,0.503c0.459,0.335,0.688,0.837,0.688,1.504
		c0,0.334-0.096,0.632-0.288,0.895c-0.192,0.263-0.458,0.458-0.799,0.586c0.438,0.098,0.775,0.309,1.012,0.632
		c0.235,0.324,0.354,0.7,0.354,1.128c0,0.691-0.226,1.216-0.678,1.575c-0.451,0.359-1.075,0.539-1.87,0.539H241.203z M242.432,107.5
		h1.355c0.381,0,0.682-0.09,0.902-0.271s0.331-0.436,0.331-0.766c0-0.364-0.116-0.635-0.349-0.812s-0.573-0.266-1.021-0.266h-1.219
		V107.5z M242.432,108.416v2.361h1.548c0.425,0,0.751-0.097,0.98-0.29s0.344-0.474,0.344-0.84c0-0.39-0.096-0.693-0.288-0.908
		c-0.192-0.215-0.492-0.323-0.9-0.323H242.432z"/>
	<path fill="#FFFFFF" d="M253.114,108.451h-3.221v2.326h3.737v0.986h-4.966v-7.362h4.93v0.986h-3.701v2.078h3.221V108.451z"/>
	<path fill="#FFFFFF" d="M260.628,105.387h-2.225v6.376h-1.229v-6.376h-2.225v-0.986h5.678V105.387z"/>
	<path fill="#FFFFFF" d="M265.875,110.043h-2.882l-0.586,1.719h-1.244l2.705-7.362h1.163l2.675,7.362h-1.249L265.875,110.043z
		 M263.348,109.017h2.179l-1.066-3.145h-0.031L263.348,109.017z"/>
</g>
<polygon fill="#EF3F6B" points="159,184.199 0,92 0,276.398 159,368 "/>
<path fill="#FFFFFF" d="M187.322,125.658c-19.832-17.539-28.3-41.206-28.3-41.206s-8.473,24.966-29.077,42.779
	c-32.261,27.891-41.243,50.977-41.243,71.055c0,38.632,31.142,69.331,70.319,69.331s72.173-30.08,72.173-68.713
	C231.195,178.434,229.96,163.364,187.322,125.658z M159.022,264.526c-37.411,0-67.229-29.374-67.229-66.24
	c0-22.509,12.726-44.987,40.174-68.717c10.987-9.499,18.542-20.963,22.946-28.909c1.743-3.144,3.133-5.984,4.169-8.249
	c4.073,8.552,12.48,23.435,26.193,35.562c41.594,36.783,42.83,50.741,42.83,70.931C228.105,235.771,196.433,264.526,159.022,264.526
	z"/>
<g>
	<rect x="175" y="156" fill="#FFFFFF" width="19" height="13"/>
	<path fill="#FFFFFF" d="M175,168v36.891c0,2.195-0.229,4.26-0.756,6.22c-0.527,1.95-1.379,3.702-2.583,5.243
		c-1.196,1.553-2.756,2.776-4.68,3.682c-1.923,0.904-4.232,1.354-6.939,1.354c-2.714,0-5.031-0.449-6.955-1.354
		c-1.915-0.905-3.46-2.129-4.628-3.682c-1.172-1.541-2.04-3.293-2.606-5.243c-0.566-1.96-0.853-4.024-0.853-6.22V156h-19v50.465
		c0,4.83,0.693,9.211,2.274,13.179c1.584,3.945,3.791,7.337,6.729,10.165c2.942,2.826,6.494,5.021,10.713,6.61
		c4.218,1.581,8.95,2.371,14.227,2.371c5.193,0,9.918-0.79,14.178-2.371c4.245-1.589,7.882-3.784,10.895-6.61
		c3.007-2.828,5.133-6.22,6.758-10.165c1.617-3.968,2.227-8.349,2.227-13.179V168H175z"/>
</g>
</svg>
