<?xml version="1.0" encoding="utf-8"?>
<!-- Generator: Adobe Illustrator 16.0.0, SVG Export Plug-In . SVG Version: 6.00 Build 0)  -->
<!DOCTYPE svg PUBLIC "-//W3C//DTD SVG 1.1//EN" "http://www.w3.org/Graphics/SVG/1.1/DTD/svg11.dtd">
<svg version="1.1" id="Layer_1" xmlns="http://www.w3.org/2000/svg" xmlns:xlink="http://www.w3.org/1999/xlink" x="0px" y="0px"
	 width="29px" height="36px" viewBox="0 0 29 36" enable-background="new 0 0 29 36" xml:space="preserve">
<path fill="#FFFFFF" d="M26.011,20.158c-0.315-2.242-1.106-4.24-2.515-6.017c-0.962-1.212-1.969-2.347-3.036-3.461
	c-2.409-2.512-4.746-5.053-6.065-8.354c-0.048-0.127-0.063-0.285-0.242-0.272c-0.211,0.014-0.206,0.222-0.262,0.356
	c-0.838,2.023-2.029,3.818-3.462,5.467c-1.886,2.169-3.988,4.141-5.773,6.406c-5.602,7.11-1.626,17.762,7.271,19.437
	c0.318,0.059,0.691,0.28,0.957,0.28c0.823,0,1.645,0,2.468,0c0.438,0,0.956-0.235,1.429-0.355c5.069-1.339,8.021-4.561,9.143-9.693
	C25.983,23.678,26,23.335,26,23.115c0-0.868,0-1.736,0-2.604C26,20.442,26.029,20.292,26.011,20.158z M17.049,31.737
	c-4.283,1.27-8.917-0.422-11.475-4.192c-2.511-3.702-2.314-8.625,0.492-12.213c0.972-1.242,2.045-2.396,3.123-3.544
	c1.728-1.841,3.521-3.629,4.843-5.808c0.032-0.052,0.1-0.083,0.194-0.16c2.131,3.557,5.372,6.149,7.928,9.333
	C26.859,21.016,24.226,29.61,17.049,31.737z"/>
<g>
	<path fill="#FFFFFF" d="M18.869,24.638c-0.222,0.541-0.54,1.006-0.952,1.394c-0.414,0.388-0.912,0.688-1.495,0.906
		c-0.584,0.217-1.231,0.325-1.944,0.325c-0.724,0-1.374-0.108-1.952-0.325c-0.579-0.218-1.069-0.519-1.472-0.906
		c-0.403-0.388-0.712-0.853-0.929-1.394c-0.217-0.544-0.325-1.145-0.325-1.807V16h2.633v6.615c0,0.301,0.039,0.584,0.116,0.853
		c0.078,0.268,0.196,0.508,0.356,0.719c0.16,0.213,0.372,0.381,0.635,0.505c0.264,0.124,0.582,0.186,0.954,0.186
		c0.371,0,0.688-0.062,0.952-0.186c0.263-0.124,0.478-0.292,0.643-0.505c0.165-0.211,0.284-0.451,0.356-0.719
		c0.072-0.269,0.108-0.552,0.108-0.853V16h2.649v6.831C19.201,23.493,19.091,24.094,18.869,24.638z"/>
</g>
</svg>
