<?xml version="1.0" encoding="utf-8"?>
<!-- Generator: Adobe Illustrator 16.0.0, SVG Export Plug-In . SVG Version: 6.00 Build 0)  -->
<!DOCTYPE svg PUBLIC "-//W3C//DTD SVG 1.1//EN" "http://www.w3.org/Graphics/SVG/1.1/DTD/svg11.dtd">
<svg version="1.1" id="Layer_1" xmlns="http://www.w3.org/2000/svg" xmlns:xlink="http://www.w3.org/1999/xlink" x="0px" y="0px"
	 width="43px" height="51px" viewBox="0 0 43 51" enable-background="new 0 0 43 51" xml:space="preserve">
<polygon fill="#005685" points="1,13.118 22,0.851 43,13.118 43,37.652 22,49.919 1,37.652 "/>
<polygon fill="#4F89C8" points="21,25.412 0,13.118 0,37.705 21,49.919 "/>
<polygon fill="#1079BF" points="43.225,13.118 21.982,25.412 0.741,13.118 21.982,0.851 "/>
<text transform="matrix(1 0 0 1 30.415 17.0439)" fill="#FFFFFF" font-family="'Roboto-Medium'" font-size="12.2611">3</text>
<g>
	<rect x="25" y="17" fill="#FFFFFF" width="4" height="4"/>
	<path fill="#FFFFFF" d="M25,21v6.869c0,0.494-0.043,0.958-0.162,1.398c-0.118,0.439-0.306,0.834-0.576,1.18
		c-0.27,0.35-0.617,0.625-1.051,0.828c-0.432,0.203-0.951,0.305-1.561,0.305s-1.131-0.102-1.562-0.305
		c-0.431-0.203-0.778-0.479-1.041-0.828c-0.264-0.346-0.594-0.74-0.721-1.18C18.199,28.827,18,28.363,18,27.869V17h-4v11.223
		c0,1.087,0.153,2.072,0.51,2.965c0.356,0.887,0.852,1.65,1.512,2.286c0.662,0.636,1.461,1.13,2.409,1.486s2.013,0.534,3.2,0.534
		c1.168,0,2.23-0.178,3.188-0.534c0.955-0.356,1.773-0.851,2.451-1.486c0.676-0.636,1.009-1.399,1.374-2.286
		C29.008,30.295,29,29.31,29,28.223V21H25z"/>
</g>
</svg>
